<?xml version="1.0" encoding="UTF-8"?>
<svg version="1.1" xmlns="http://www.w3.org/2000/svg" width="512" height="512">
<path d="M0 0 C2.08352158 0.96180586 2.08352158 0.96180586 4.44921875 0.03125 C7.1420559 -1.33143949 9.81194713 -2.72788644 12.47265625 -4.15234375 C30.63603787 -13.32373027 51.55905152 -14.91358003 71.03515625 -9.27734375 C81.65853649 -5.67449802 90.49615792 -0.58147155 99.03515625 6.72265625 C99.68742187 7.274375 100.3396875 7.82609375 101.01171875 8.39453125 C109.88457122 16.57862349 118.26284501 29.04151496 120.6875 40.91796875 C121.80491565 44.08146822 121.80491565 44.08146822 125.38671875 44.9375 C126.8076437 45.19853443 128.23262357 45.43808164 129.66015625 45.66015625 C150.13552582 49.69856602 167.46468429 60.3835795 179.26953125 77.8515625 C191.50799488 97.75260403 195.38645417 119.12770513 190.03515625 141.97265625 C189.40209333 144.56733012 188.73271047 147.1441969 188.03515625 149.72265625 C188.72480469 150.18414062 189.41445313 150.645625 190.125 151.12109375 C208.59917906 163.94404931 219.66641877 182.787317 224.03515625 204.72265625 C224.54555077 207.72555994 224.86097147 210.68234006 225.03515625 213.72265625 C225.11443359 214.92921875 225.11443359 214.92921875 225.1953125 216.16015625 C225.94158711 237.96435365 217.14372773 258.80605354 202.76953125 274.88671875 C199.42372453 278.35679829 196.0510396 281.07065781 192.03515625 283.72265625 C192.32519531 284.72232422 192.32519531 284.72232422 192.62109375 285.7421875 C199.44639162 309.90103888 197.97685895 331.34577459 185.97265625 353.66015625 C175.98761439 370.10104414 160.2103246 382.49687656 141.5703125 387.6875 C133.08267929 389.72265625 133.08267929 389.72265625 129.03515625 389.72265625 C128.87015625 390.87765625 128.70515625 392.03265625 128.53515625 393.22265625 C126.17511705 403.85969009 120.02311101 414.47157264 113.03515625 422.72265625 C112.33390625 423.69203125 111.63265625 424.66140625 110.91015625 425.66015625 C100.50370959 437.77365409 83.5264533 445.94093728 68.03515625 448.72265625 C66.90078125 448.94953125 65.76640625 449.17640625 64.59765625 449.41015625 C45.17615368 451.11379683 23.26089701 448.4878121 7.078125 436.7265625 C4.25549208 435.33953256 3.00451337 435.74895273 0.03515625 436.72265625 C-2.15625577 437.77685824 -4.32111871 438.88708332 -6.46484375 440.03515625 C-26.18178374 450.19063843 -49.54695586 452.86725624 -70.96484375 446.72265625 C-80.46958892 443.49575017 -89.1322711 439.02993844 -96.96484375 432.72265625 C-98.09792969 431.85060547 -98.09792969 431.85060547 -99.25390625 430.9609375 C-111.05003536 421.29297601 -121.06900303 405.0552681 -122.96484375 389.72265625 C-124.14626953 389.59310547 -124.14626953 389.59310547 -125.3515625 389.4609375 C-145.39984331 386.8748279 -162.79556593 376.71934071 -175.27734375 360.78515625 C-176.19985068 359.4490179 -177.09378444 358.09288995 -177.96484375 356.72265625 C-178.84076172 355.36720703 -178.84076172 355.36720703 -179.734375 353.984375 C-191.18035663 335.40573956 -193.36882589 315.04204853 -188.81640625 294.02734375 C-188.00179134 290.86604002 -187.04173095 287.80349006 -185.96484375 284.72265625 C-186.78984375 284.10390625 -187.61484375 283.48515625 -188.46484375 282.84765625 C-189.28984375 282.14640625 -190.11484375 281.44515625 -190.96484375 280.72265625 C-190.96484375 280.06265625 -190.96484375 279.40265625 -190.96484375 278.72265625 C-191.83689453 278.34947266 -191.83689453 278.34947266 -192.7265625 277.96875 C-204.75478219 271.27241129 -212.16458216 254.11520034 -215.90234375 241.578125 C-221.45971892 220.33719585 -220.08021681 197.5097797 -208.9921875 178.19140625 C-201.90834179 166.43448945 -192.99234338 156.91116129 -181.96484375 148.72265625 C-182.25359375 147.75070313 -182.54234375 146.77875 -182.83984375 145.77734375 C-188.80088442 124.26403284 -187.51238672 102.81635875 -176.94921875 82.9765625 C-173.77238816 77.76731076 -170.06674272 73.22543889 -165.96484375 68.72265625 C-165.33964844 68.00464844 -164.71445313 67.28664063 -164.0703125 66.546875 C-151.72867367 53.16594026 -133.7377097 46.31098633 -115.96484375 44.72265625 C-115.81789063 44.14 -115.6709375 43.55734375 -115.51953125 42.95703125 C-112.3339076 31.31302757 -106.97383021 21.72512386 -98.96484375 12.72265625 C-98.371875 12.03558594 -97.77890625 11.34851563 -97.16796875 10.640625 C-72.53419852 -16.04595941 -29.82145876 -19.70859413 0 0 Z M-78.96484375 32.72265625 C-88.84935649 44.83436607 -91.49383883 59.38179903 -90.96484375 74.72265625 C-91.48949219 74.57828125 -92.01414062 74.43390625 -92.5546875 74.28515625 C-107.55164961 70.69187415 -121.57868707 71.93631768 -135.15234375 79.41015625 C-146.14405833 86.44979367 -154.46004322 96.72444264 -157.4921875 109.54296875 C-159.08037013 120.22710646 -159.30824957 132.00087443 -153.96484375 141.72265625 C-150.69184264 142.81365662 -148.60534455 142.45108739 -145.25 141.98828125 C-127.46065058 139.92045944 -109.63359537 144.63913011 -94.96484375 154.72265625 C-86.73545602 161.26849256 -79.54322825 168.79724106 -73.96484375 177.72265625 C-72.95421875 177.55765625 -71.94359375 177.39265625 -70.90234375 177.22265625 C-60.1342999 175.89824444 -50.22606487 176.30224921 -39.96484375 179.72265625 C-37.73592241 188.55261386 -37.73592241 188.55261386 -38.52734375 192.59765625 C-40.46726259 195.46536236 -41.98147482 196.87797775 -44.96484375 198.72265625 C-48.48220057 199.26518109 -51.97397682 199.22593619 -55.52734375 199.22265625 C-64.00014687 199.41960176 -71.18728903 200.0805989 -78.96484375 203.72265625 C-79.88007813 204.12226563 -80.7953125 204.521875 -81.73828125 204.93359375 C-89.68442191 208.78424455 -95.01725215 214.34128569 -100.96484375 220.72265625 C-103.87582179 223.74358131 -105.82920802 225.66470292 -109.96484375 226.72265625 C-114.34876794 226.6457453 -116.24078219 226.46577206 -119.33984375 223.28515625 C-121.9531089 219.16423813 -122.26089964 217.02480777 -121.66015625 212.2265625 C-120.3533502 207.52059241 -117.20608577 204.2632901 -113.96484375 200.72265625 C-113.42601562 200.10390625 -112.8871875 199.48515625 -112.33203125 198.84765625 C-107.6021651 193.72934699 -101.92189384 190.26672402 -95.96484375 186.72265625 C-102.26195456 175.55959618 -112.43631614 169.58573254 -124.2578125 165.6171875 C-137.88763451 162.32822097 -152.06764897 164.65383219 -164.21484375 171.47265625 C-177.44078545 180.07593871 -186.07811242 191.31053088 -189.96484375 206.72265625 C-190.77799286 210.32731373 -190.77799286 210.32731373 -190.96484375 213.72265625 C-191.01640625 214.37105469 -191.06796875 215.01945313 -191.12109375 215.6875 C-191.81395596 231.65220016 -184.79086143 245.9543749 -174.27734375 257.4921875 C-166.3665473 265.12236448 -155.88199015 269.31949678 -145.96484375 273.72265625 C-146.70089844 274.7384375 -147.43695313 275.75421875 -148.1953125 276.80078125 C-157.55187443 289.9191609 -164.38882583 302.10275114 -162.96484375 318.72265625 C-160.55520487 332.32405159 -154.92680521 343.95308708 -143.96484375 352.72265625 C-136.44904865 357.68804641 -128.09729594 361.72265625 -118.96484375 361.72265625 C-118.68511719 360.69527344 -118.40539062 359.66789062 -118.1171875 358.609375 C-113.98179776 344.0580164 -107.05504011 333.05670608 -95.8046875 322.7421875 C-90.28917535 316.68800537 -90.49825995 306.89429827 -90.66796875 299.1640625 C-91.1861384 293.15738541 -92.75918395 287.65817576 -95.04296875 282.09765625 C-96.22933529 279.04125433 -96.36402054 276.9826 -95.96484375 273.72265625 C-93.82823588 269.75467021 -92.18295826 267.34678428 -87.96484375 265.72265625 C-85.74609375 265.5703125 -85.74609375 265.5703125 -83.46484375 265.78515625 C-82.71203125 265.83800781 -81.95921875 265.89085937 -81.18359375 265.9453125 C-77.08418576 267.38154875 -75.43041164 270.79923707 -73.55078125 274.52734375 C-69.16761062 285.64080219 -67.54660896 296.8029647 -67.96484375 308.72265625 C-67.3821875 308.65046875 -66.79953125 308.57828125 -66.19921875 308.50390625 C-46.06881571 306.2249927 -46.06881571 306.2249927 -39.96484375 310.72265625 C-37.33371457 314.07136611 -37.60342977 317.60253689 -37.96484375 321.72265625 C-39.31779402 325.22440988 -40.51349664 326.44569325 -43.71484375 328.41015625 C-47.42377784 329.82643699 -51.1601703 330.15607439 -55.08984375 330.59765625 C-65.52486947 331.85687795 -76.41226863 334.94190665 -83.96484375 342.72265625 C-83.96484375 343.38265625 -83.96484375 344.04265625 -83.96484375 344.72265625 C-84.62484375 344.72265625 -85.28484375 344.72265625 -85.96484375 344.72265625 C-94.66402167 354.76339414 -97.46479714 365.54792911 -96.8203125 378.6640625 C-95.65472282 388.28337956 -91.30039683 396.71932663 -85.96484375 404.72265625 C-85.30484375 404.72265625 -84.64484375 404.72265625 -83.96484375 404.72265625 C-83.70960938 405.32078125 -83.454375 405.91890625 -83.19140625 406.53515625 C-79.41291414 413.27386829 -70.28198411 417.29382997 -63.21484375 419.6328125 C-46.69473091 424.25758367 -30.86055252 421.31486294 -15.890625 413.44140625 C-12.24327299 411.32581236 -12.24327299 411.32581236 -8.96484375 408.72265625 C-8.3716356 406.51414309 -8.3716356 406.51414309 -8.47265244 403.99626637 C-8.46468824 403.01842585 -8.45672405 402.04058534 -8.44851851 401.0331133 C-8.46016988 399.95627725 -8.47182125 398.8794412 -8.48382568 397.76997375 C-8.47869913 396.05716218 -8.47869913 396.05716218 -8.47346902 394.30974835 C-8.4680086 391.13524531 -8.48054999 387.96139146 -8.50058126 384.78696525 C-8.51782301 381.36571807 -8.5120119 377.94450227 -8.50897217 374.52322388 C-8.50687271 368.59401045 -8.51944393 362.66497281 -8.54192352 356.7358036 C-8.57440418 348.16320542 -8.58484649 339.59069242 -8.58987549 331.01803937 C-8.59863434 317.11020394 -8.62526587 303.20246225 -8.66308594 289.29467773 C-8.69979079 275.78296376 -8.72811 262.27127523 -8.74511719 248.75952148 C-8.74616808 247.92693789 -8.74721898 247.09435429 -8.74830171 246.23654089 C-8.75352179 242.05979708 -8.75857664 237.88305308 -8.76354933 233.70630896 C-8.80502972 199.04502456 -8.87549417 164.38384904 -8.96484375 129.72265625 C-10.10429443 129.80136963 -11.24374512 129.88008301 -12.41772461 129.96118164 C-13.94252782 130.06033198 -15.46734983 130.15919352 -16.9921875 130.2578125 C-17.73964233 130.31022095 -18.48709717 130.36262939 -19.25720215 130.41662598 C-36.58072803 131.51138636 -52.9872035 126.91054737 -66.48046875 115.93359375 C-73.31880113 109.84790801 -80.11138267 101.74379607 -81.2578125 92.3125 C-81.00863038 89.21221086 -80.08443426 86.91699083 -78.46484375 84.28515625 C-74.86483223 82.03514905 -71.19734992 81.33009666 -66.96484375 81.72265625 C-62.94761715 83.59452583 -61.02948435 85.68685812 -58.71484375 89.41015625 C-52.08046755 99.22559404 -44.48785791 104.49926125 -33.08984375 107.47265625 C-26.18458355 108.02507707 -19.88263172 108.48420012 -13.2590332 106.20214844 C-12.4534346 105.92667175 -11.647836 105.65119507 -10.81782532 105.36737061 C-10.2063414 105.15461487 -9.59485748 104.94185913 -8.96484375 104.72265625 C-8.70959042 94.80460951 -8.51433763 84.88734774 -8.39490986 74.96668148 C-8.33757739 70.35949882 -8.25987737 65.754568 -8.13500977 61.14868164 C-8.01517714 56.70050155 -7.94965932 52.25448138 -7.92119408 47.80481148 C-7.90092089 46.11047917 -7.8613248 44.41626091 -7.80181313 42.72285271 C-7.2130054 33.26176399 -7.2130054 33.26176399 -11.28256226 25.16726685 C-14.12931084 23.30145196 -16.79838131 21.95963046 -19.96484375 20.72265625 C-21.49719414 20.08413979 -21.49719414 20.08413979 -23.0605011 19.432724 C-43.41345016 11.30404985 -64.08488683 16.99315161 -78.96484375 32.72265625 Z M19.03515625 24.72265625 C18.33681797 25.08846707 17.63847969 25.4542779 16.91897964 25.8311739 C14.55124629 28.20853361 14.55688927 29.93914411 14.51883101 33.21365756 C14.53048238 33.96365395 14.54213375 34.71365034 14.55413818 35.4863739 C14.55072048 36.28522989 14.54730278 37.08408587 14.54378152 37.90714961 C14.53717518 40.59300194 14.55922348 43.27786229 14.58105469 45.96362305 C14.58218257 47.88522315 14.58155046 49.80682498 14.57928467 51.72842407 C14.57813429 56.95343655 14.60169596 62.17808371 14.6295805 67.40301108 C14.6545403 72.86027421 14.65693187 78.31754517 14.66168213 83.77485657 C14.67412786 94.11275852 14.70697111 104.45049181 14.74708009 114.78831941 C14.79174809 126.55597685 14.81377233 138.32364223 14.83386183 150.09136331 C14.87570232 174.30188789 14.94608543 198.51226263 15.03515625 222.72265625 C23.14140742 224.88046617 31.80192376 223.72278861 40.03515625 222.72265625 C40.19951172 220.87800781 40.19951172 220.87800781 40.3671875 218.99609375 C40.52672111 217.3632203 40.68691218 215.73041099 40.84765625 214.09765625 C40.91791016 213.28941406 40.98816406 212.48117188 41.06054688 211.6484375 C41.64347996 205.91237593 42.74569462 201.2665025 46.72265625 196.84765625 C50.13033319 195.18986747 53.35978709 195.18194588 57.03515625 195.72265625 C59.87640278 196.95798083 61.45613484 197.97820015 63.34765625 200.41015625 C64.51063795 204.3220038 64.61660944 208.58913511 63.5390625 212.54296875 C60.53711291 225.52814603 63.84360527 240.05139152 70.0078125 251.48046875 C71.73902665 255.25886009 71.72124039 257.6061514 71.03515625 261.72265625 C69.25266872 264.73060395 67.21420055 267.1331341 64.03515625 268.72265625 C59.51330695 268.84702932 56.01636795 268.41396449 52.28515625 265.78515625 C47.65463055 259.48249627 45.18474913 253.24623134 43.03515625 245.72265625 C33.79515625 246.05265625 24.55515625 246.38265625 15.03515625 246.72265625 C14.84996186 267.61067256 14.70719909 288.49849114 14.62065887 309.38716316 C14.57940845 319.08619255 14.52317107 328.78470248 14.43164062 338.48339844 C14.35189984 346.93687564 14.30028995 355.38997666 14.28244829 363.8438195 C14.27201864 368.32026416 14.24751288 372.79563265 14.1893158 377.27173233 C14.13496729 381.48601443 14.11827199 385.6987785 14.1302948 389.91337776 C14.12809585 391.45899651 14.11220611 393.00466656 14.08151245 394.54998207 C13.65971551 402.70622388 13.65971551 402.70622388 16.74317932 409.92889023 C18.78557889 411.49986601 20.70820593 412.62886662 23.03515625 413.72265625 C24.3063794 414.4511431 25.57727318 415.1802054 26.84765625 415.91015625 C34.44979764 419.48763455 42.68212643 421.22598961 51.03515625 421.72265625 C51.74027344 421.77550781 52.44539063 421.82835937 53.171875 421.8828125 C65.63283796 422.39735855 76.16164679 417.43977058 86.22265625 410.53515625 C95.76380909 400.99400341 102.42916177 389.15792692 103.10546875 375.47265625 C102.75513848 361.77085005 98.18843327 349.96682662 89.03515625 339.72265625 C86.41444839 337.92959524 86.41444839 337.92959524 84.03515625 336.72265625 C83.39191406 337.16996094 82.74867188 337.61726563 82.0859375 338.078125 C72.30686746 344.62075531 61.21581366 350.99883971 49.03515625 348.72265625 C46.03318161 346.92147147 44.58349259 345.81932893 43.03515625 342.72265625 C42.76171875 340.734375 42.76171875 340.734375 42.66015625 338.41015625 C42.61117188 337.65089844 42.5621875 336.89164062 42.51171875 336.109375 C43.31723997 332.43643868 45.14062506 331.05584696 48.03515625 328.72265625 C50.64181392 327.6189863 53.10427002 326.69675584 55.78515625 325.84765625 C62.56846064 323.50643398 67.75796179 320.69358496 73.03515625 315.72265625 C73.92203125 314.91828125 74.80890625 314.11390625 75.72265625 313.28515625 C76.48578125 312.43953125 77.24890625 311.59390625 78.03515625 310.72265625 C78.504375 310.243125 78.97359375 309.76359375 79.45703125 309.26953125 C84.12850867 303.92381997 85.91598078 297.77417333 87.85522461 291.06958008 C89.16454921 286.69075614 90.18094164 283.51264742 94.03515625 280.72265625 C98.59912103 279.12941764 102.12419906 279.29202194 106.47265625 281.34765625 C109.25226839 283.92388214 110.29635213 285.02863567 111.03515625 288.72265625 C111.33999712 297.8107247 107.37928856 307.22237046 102.59765625 314.78515625 C102.08203125 315.75453125 101.56640625 316.72390625 101.03515625 317.72265625 C102.12261976 320.79879613 103.74278396 322.54073915 106.16015625 324.66015625 C116.24218592 334.51113941 121.59872305 348.28932647 125.03515625 361.72265625 C138.12345336 360.75315276 148.80752924 354.45361457 157.84765625 345.03515625 C166.78070487 334.12652957 169.95671909 320.93790213 168.828125 307.203125 C167.12293725 294.40484769 159.84102838 283.6574026 152.03515625 273.72265625 C153.08574219 273.21476562 154.13632812 272.706875 155.21875 272.18359375 C169.80657527 265.16276302 169.80657527 265.16276302 182.03515625 254.72265625 C182.57785156 254.19542969 183.12054688 253.66820312 183.6796875 253.125 C192.97167533 243.59008438 196.28820926 230.83540947 197.34765625 217.91015625 C196.81959813 201.83738709 190.13261745 188.61443571 178.7890625 177.52734375 C168.53994594 168.67506902 156.66415131 164.56155323 143.28515625 164.47265625 C142.52460938 164.45203125 141.7640625 164.43140625 140.98046875 164.41015625 C135.17970449 164.37082903 130.41845786 165.60196168 125.03515625 167.72265625 C125.2367334 168.23538086 125.43831055 168.74810547 125.64599609 169.27636719 C135.6271051 194.87983233 135.6271051 194.87983233 132.91015625 203.34765625 C130.97196258 206.83640486 130.55951196 207.39703964 127.03515625 208.72265625 C124.8515625 209.05859375 124.8515625 209.05859375 122.59765625 209.09765625 C121.85644531 209.12601563 121.11523438 209.154375 120.3515625 209.18359375 C116.89445067 208.49566931 115.44190641 207.30842088 113.03515625 204.72265625 C111.8886396 201.79577634 111.29189379 198.79585239 110.66015625 195.72265625 C107.1285743 180.67560479 99.59422348 169.013116 86.734375 160.30859375 C83.92655524 158.65884726 81.10375055 157.40706987 78.09765625 156.16015625 C74.51254507 154.61065905 73.235027 153.99105411 70.84765625 150.78515625 C69.50259426 145.71530721 69.27244883 143.07010603 71.91015625 138.41015625 C73.99576442 135.77247533 74.70935867 134.99339807 77.890625 134.34375 C87.32235958 133.60121813 96.38356219 138.8177065 103.46875 144.765625 C104.15066406 145.34957031 104.83257812 145.93351563 105.53515625 146.53515625 C107.55666123 148.11107863 107.55666123 148.11107863 110.03515625 148.72265625 C113.94897528 147.94169813 117.42588119 146.65260762 121.12109375 145.1796875 C133.10009317 140.46239914 146.49943291 141.22903815 159.03515625 142.72265625 C165.01963163 134.2899864 164.83321429 123.6630247 164.03515625 113.72265625 C161.450561 99.97941924 153.95204618 88.26170886 142.69140625 80.00390625 C131.10573689 72.52455008 117.88961197 70.81011386 104.47265625 73.4140625 C94.12474134 76.33051493 86.05943413 81.04493841 78.82421875 88.98828125 C76.42249412 91.31659072 74.38068246 92.56760538 71.03515625 92.953125 C70.37515625 92.93894531 69.71515625 92.92476563 69.03515625 92.91015625 C68.37515625 92.90371094 67.71515625 92.89726562 67.03515625 92.890625 C64.84722364 92.70687285 63.08305445 92.54095867 61.03515625 91.72265625 C58.65356171 87.84215606 57.95885392 83.77181324 58.28515625 79.28515625 C65.28553611 65.03438297 79.8092 58.0541858 94.03515625 52.72265625 C93.83683968 43.99672699 88.5479089 36.0380504 82.66015625 29.84765625 C74.04729844 21.98124612 63.81220848 16.59503049 52.03515625 15.72265625 C51.060625 15.6453125 51.060625 15.6453125 50.06640625 15.56640625 C38.71462237 15.07285043 28.4966489 18.65719185 19.03515625 24.72265625 Z " fill="#000000" transform="translate(252.96484375,37.27734375)"/>
</svg>
